<svg width="36" height="35" viewBox="0 0 36 35" fill="none" xmlns="http://www.w3.org/2000/svg">
<path d="M19.3789 11.5889C19.3789 13.798 17.588 15.5889 15.3789 15.5889C13.1698 15.5889 11.3789 13.798 11.3789 11.5889C11.3789 9.37973 13.1698 7.58887 15.3789 7.58887C17.588 7.58887 19.3789 9.37973 19.3789 11.5889Z" stroke="#151472"/>
<circle cx="24.5" cy="11.5" r="2" stroke="#151472"/>
<circle cx="22" cy="20" r="4.5" stroke="#151472"/>
<mask id="path-4-inside-1_0_1" fill="white">
<path d="M35.081 9.7383L35.6051 12.4492C35.6533 12.6982 35.5802 12.9556 35.4099 13.1453L33.4689 15.2691L31.8386 17.0635L31.61 20.5722C31.6019 20.6942 31.566 20.8126 31.5055 20.919L29.4087 24.5847C29.3163 24.7459 29.1709 24.8701 28.9975 24.9364L26.9164 25.7312L23.5702 27.1716L23.4047 28.7074C23.3918 28.826 23.3526 28.9405 23.2898 29.0424L21.8099 31.4451C21.7964 31.4672 21.7818 31.4885 21.7662 31.5089L20.9028 32.6487C20.7966 32.7887 20.6512 32.886 20.4907 32.9339L20.4414 33.0875C20.4128 33.1762 20.3691 33.2593 20.312 33.3327L19.2635 34.688C19.1086 34.8883 18.8716 35 18.627 35C18.5402 35 18.4522 34.986 18.367 34.9566C18.0413 34.8455 17.8225 34.5399 17.8225 34.196V33.5829L17.7177 33.4304L16.0818 32.1705L15.312 31.9052C15.0641 31.8198 14.8733 31.6192 14.801 31.3676C14.7288 31.116 14.7834 30.8448 14.9481 30.6411L17.271 27.7629L17.2052 27.6831C17.0861 27.539 17.0211 27.3582 17.0211 27.1716V26.5945L16.7875 26.5226C16.5051 26.4356 16.293 26.2013 16.2353 25.912L16.1213 25.3419L14.8997 25.0587C14.5879 24.9862 14.3487 24.7363 14.2904 24.4221L13.982 22.7586C13.9624 22.6529 13.964 22.5446 13.9873 22.4393L14.3069 20.9903L14.1069 20.7334C14.0383 20.6449 13.9887 20.5436 13.9615 20.4348L13.8363 19.9344H13.046C12.672 19.9344 12.3476 19.6772 12.2625 19.3134L12.0728 18.5027L11.5072 17.509L8.3981 16.4078C8.12161 16.3102 7.92048 16.0695 7.87314 15.7807L7.74736 15.0153L6.55541 15.8963C6.41646 15.999 6.24866 16.0538 6.07722 16.0538C6.04977 16.0538 6.02204 16.0521 5.99486 16.0493L3.8981 15.8338C3.48801 15.7919 3.17594 15.4463 3.17594 15.0343V14.9624L1.93774 14.6051C1.77835 14.5589 1.63688 14.4646 1.53295 14.335L0.176271 12.6408C0.00595191 12.4279 -0.0450298 12.1435 0.0412488 11.8847L0.75054 9.75925C0.819729 9.55216 0.969883 9.38202 1.1671 9.28827L3.23281 8.30264C3.295 8.27297 3.36083 8.25142 3.42834 8.23855L3.725 6.58888L3.26194 6.17975C3.04148 5.98442 2.94512 5.68471 3.01095 5.39787L3.44263 3.51873C3.52022 3.18012 3.80652 2.93021 4.15276 2.89803L6.15708 2.71306C6.18173 2.7111 6.20666 2.70998 6.23103 2.70998C6.43693 2.70998 6.63666 2.78945 6.78681 2.93302L7.26275 3.38805H8.25635L8.60259 2.91091L7.97089 1.82261C7.80617 1.53915 7.83082 1.18375 8.0328 0.924887C8.18799 0.726757 8.42331 0.615937 8.66702 0.615937C8.74154 0.615937 8.81661 0.626291 8.89001 0.647559L10.2086 1.02731L12.3127 0.0721995C12.4188 0.0237869 12.5323 0 12.6455 0C12.7976 0 12.9494 0.0428197 13.0811 0.127893C13.3111 0.275372 13.45 0.530312 13.45 0.803442L13.4497 2.173L14.1405 3.05396L15.8171 2.69799L16.0673 2.35854C16.2202 2.15117 16.4617 2.03168 16.7147 2.03168C16.757 2.03168 16.7993 2.03504 16.8416 2.04175L18.4428 2.29697L19.5479 0.5306C19.6952 0.295254 19.9532 0.152811 20.2303 0.152811H20.2451C20.5278 0.158127 20.7869 0.31148 20.9278 0.556069L22.4697 3.23586C22.5893 3.44406 22.6097 3.69452 22.5254 3.91868L22.2478 4.65801C22.1764 4.84775 22.0357 5.0039 21.8542 5.09457L21.1808 5.43123C21.3993 5.53113 21.569 5.72702 21.629 5.97413L21.6769 6.17142L22.0175 6.12972L23.6653 4.90201C23.807 4.79651 23.976 4.74278 24.1463 4.74278C24.2768 4.74278 24.4076 4.77468 24.527 4.83876L26.5664 5.9335L27.3715 6.29087C27.4023 6.30458 27.4326 6.32025 27.4614 6.33788L28.441 6.93031H30.4675C30.6608 6.93031 30.8471 6.99972 30.9933 7.12565L33.064 8.91108L34.4006 9.09438C34.742 9.14139 35.0155 9.39997 35.081 9.7383Z"/>
</mask>
<path d="M35.081 9.7383L35.6051 12.4492C35.6533 12.6982 35.5802 12.9556 35.4099 13.1453L33.4689 15.2691L31.8386 17.0635L31.61 20.5722C31.6019 20.6942 31.566 20.8126 31.5055 20.919L29.4087 24.5847C29.3163 24.7459 29.1709 24.8701 28.9975 24.9364L26.9164 25.7312L23.5702 27.1716L23.4047 28.7074C23.3918 28.826 23.3526 28.9405 23.2898 29.0424L21.8099 31.4451C21.7964 31.4672 21.7818 31.4885 21.7662 31.5089L20.9028 32.6487C20.7966 32.7887 20.6512 32.886 20.4907 32.9339L20.4414 33.0875C20.4128 33.1762 20.3691 33.2593 20.312 33.3327L19.2635 34.688C19.1086 34.8883 18.8716 35 18.627 35C18.5402 35 18.4522 34.986 18.367 34.9566C18.0413 34.8455 17.8225 34.5399 17.8225 34.196V33.5829L17.7177 33.4304L16.0818 32.1705L15.312 31.9052C15.0641 31.8198 14.8733 31.6192 14.801 31.3676C14.7288 31.116 14.7834 30.8448 14.9481 30.6411L17.271 27.7629L17.2052 27.6831C17.0861 27.539 17.0211 27.3582 17.0211 27.1716V26.5945L16.7875 26.5226C16.5051 26.4356 16.293 26.2013 16.2353 25.912L16.1213 25.3419L14.8997 25.0587C14.5879 24.9862 14.3487 24.7363 14.2904 24.4221L13.982 22.7586C13.9624 22.6529 13.964 22.5446 13.9873 22.4393L14.3069 20.9903L14.1069 20.7334C14.0383 20.6449 13.9887 20.5436 13.9615 20.4348L13.8363 19.9344H13.046C12.672 19.9344 12.3476 19.6772 12.2625 19.3134L12.0728 18.5027L11.5072 17.509L8.3981 16.4078C8.12161 16.3102 7.92048 16.0695 7.87314 15.7807L7.74736 15.0153L6.55541 15.8963C6.41646 15.999 6.24866 16.0538 6.07722 16.0538C6.04977 16.0538 6.02204 16.0521 5.99486 16.0493L3.8981 15.8338C3.48801 15.7919 3.17594 15.4463 3.17594 15.0343V14.9624L1.93774 14.6051C1.77835 14.5589 1.63688 14.4646 1.53295 14.335L0.176271 12.6408C0.00595191 12.4279 -0.0450298 12.1435 0.0412488 11.8847L0.75054 9.75925C0.819729 9.55216 0.969883 9.38202 1.1671 9.28827L3.23281 8.30264C3.295 8.27297 3.36083 8.25142 3.42834 8.23855L3.725 6.58888L3.26194 6.17975C3.04148 5.98442 2.94512 5.68471 3.01095 5.39787L3.44263 3.51873C3.52022 3.18012 3.80652 2.93021 4.15276 2.89803L6.15708 2.71306C6.18173 2.7111 6.20666 2.70998 6.23103 2.70998C6.43693 2.70998 6.63666 2.78945 6.78681 2.93302L7.26275 3.38805H8.25635L8.60259 2.91091L7.97089 1.82261C7.80617 1.53915 7.83082 1.18375 8.0328 0.924887C8.18799 0.726757 8.42331 0.615937 8.66702 0.615937C8.74154 0.615937 8.81661 0.626291 8.89001 0.647559L10.2086 1.02731L12.3127 0.0721995C12.4188 0.0237869 12.5323 0 12.6455 0C12.7976 0 12.9494 0.0428197 13.0811 0.127893C13.3111 0.275372 13.45 0.530312 13.45 0.803442L13.4497 2.173L14.1405 3.05396L15.8171 2.69799L16.0673 2.35854C16.2202 2.15117 16.4617 2.03168 16.7147 2.03168C16.757 2.03168 16.7993 2.03504 16.8416 2.04175L18.4428 2.29697L19.5479 0.5306C19.6952 0.295254 19.9532 0.152811 20.2303 0.152811H20.2451C20.5278 0.158127 20.7869 0.31148 20.9278 0.556069L22.4697 3.23586C22.5893 3.44406 22.6097 3.69452 22.5254 3.91868L22.2478 4.65801C22.1764 4.84775 22.0357 5.0039 21.8542 5.09457L21.1808 5.43123C21.3993 5.53113 21.569 5.72702 21.629 5.97413L21.6769 6.17142L22.0175 6.12972L23.6653 4.90201C23.807 4.79651 23.976 4.74278 24.1463 4.74278C24.2768 4.74278 24.4076 4.77468 24.527 4.83876L26.5664 5.9335L27.3715 6.29087C27.4023 6.30458 27.4326 6.32025 27.4614 6.33788L28.441 6.93031H30.4675C30.6608 6.93031 30.8471 6.99972 30.9933 7.12565L33.064 8.91108L34.4006 9.09438C34.742 9.14139 35.0155 9.39997 35.081 9.7383Z" stroke="#151472" stroke-width="2" mask="url(#path-4-inside-1_0_1)"/>
</svg>
