<svg width="27" height="26" viewBox="0 0 27 26" fill="none" xmlns="http://www.w3.org/2000/svg">
<path d="M13.7291 6.33393C10.0401 6.33393 7.06451 9.31016 7.06451 13C7.06451 16.6898 10.0401 19.6661 13.7291 19.6661C17.4181 19.6661 20.3937 16.6898 20.3937 13C20.3937 9.31016 17.4181 6.33393 13.7291 6.33393ZM13.7291 17.3338C11.3452 17.3338 9.39625 15.3903 9.39625 13C9.39625 10.6097 11.3394 8.66618 13.7291 8.66618C16.1188 8.66618 18.0619 10.6097 18.0619 13C18.0619 15.3903 16.113 17.3338 13.7291 17.3338ZM22.2208 6.06125C22.2208 6.92569 21.5247 7.61609 20.6663 7.61609C19.802 7.61609 19.1118 6.91989 19.1118 6.06125C19.1118 5.20261 19.8078 4.50641 20.6663 4.50641C21.5247 4.50641 22.2208 5.20261 22.2208 6.06125ZM26.6348 7.6393C26.5362 5.55651 26.0606 3.71159 24.5351 2.19157C23.0154 0.671538 21.1709 0.195805 19.0886 0.0913756C16.9425 -0.0304586 10.5099 -0.0304586 8.36379 0.0913756C6.28727 0.190003 4.44276 0.665737 2.91727 2.18576C1.39178 3.70579 0.921958 5.55071 0.817552 7.63349C0.695745 9.7801 0.695745 16.2141 0.817552 18.3607C0.916157 20.4435 1.39178 22.2884 2.91727 23.8084C4.44276 25.3285 6.28147 25.8042 8.36379 25.9086C10.5099 26.0305 16.9425 26.0305 19.0886 25.9086C21.1709 25.81 23.0154 25.3343 24.5351 23.8084C26.0548 22.2884 26.5304 20.4435 26.6348 18.3607C26.7566 16.2141 26.7566 9.7859 26.6348 7.6393ZM23.8623 20.664C23.4099 21.8011 22.534 22.6771 21.3913 23.1354C19.6802 23.8142 15.62 23.6576 13.7291 23.6576C11.8382 23.6576 7.77215 23.8084 6.06685 23.1354C4.92999 22.6829 4.05414 21.8069 3.59591 20.664C2.91727 18.9525 3.07388 14.8913 3.07388 13C3.07388 11.1087 2.92307 7.04173 3.59591 5.33605C4.04834 4.19893 4.92419 3.32288 6.06685 2.86455C7.77795 2.18576 11.8382 2.34241 13.7291 2.34241C15.62 2.34241 19.686 2.19157 21.3913 2.86455C22.5282 3.31708 23.4041 4.19313 23.8623 5.33605C24.5409 7.04753 24.3843 11.1087 24.3843 13C24.3843 14.8913 24.5409 18.9583 23.8623 20.664Z" fill="white"/>
</svg>
