<svg width="38" height="26" viewBox="0 0 38 26" fill="none" xmlns="http://www.w3.org/2000/svg">
<path d="M36.953 4.06812C36.5275 2.46682 35.2737 1.20568 33.6819 0.777698C30.7964 0 19.2262 0 19.2262 0C19.2262 0 7.65603 0 4.77054 0.777698C3.17864 1.20575 1.92488 2.46682 1.49935 4.06812C0.726196 6.97057 0.726196 13.0263 0.726196 13.0263C0.726196 13.0263 0.726196 19.082 1.49935 21.9844C1.92488 23.5857 3.17864 24.7943 4.77054 25.2223C7.65603 26 19.2262 26 19.2262 26C19.2262 26 30.7964 26 33.6819 25.2223C35.2737 24.7943 36.5275 23.5857 36.953 21.9844C37.7262 19.082 37.7262 13.0263 37.7262 13.0263C37.7262 13.0263 37.7262 6.97057 36.953 4.06812ZM15.4421 18.5244V7.52815L25.1125 13.0264L15.4421 18.5244Z" fill="white"/>
</svg>
